<?xml version="1.0" encoding="UTF-8" standalone="no"?>
<!-- Generator: Adobe Illustrator 16.0.0, SVG Export Plug-In . SVG Version: 6.00 Build 0)  -->

<svg
   xmlns:dc="http://purl.org/dc/elements/1.1/"
   xmlns:cc="http://creativecommons.org/ns#"
   xmlns:rdf="http://www.w3.org/1999/02/22-rdf-syntax-ns#"
   xmlns:svg="http://www.w3.org/2000/svg"
   xmlns="http://www.w3.org/2000/svg"
   xmlns:sodipodi="http://sodipodi.sourceforge.net/DTD/sodipodi-0.dtd"
   xmlns:inkscape="http://www.inkscape.org/namespaces/inkscape"
   version="1.1"
   id="Layer_1"
   x="0px"
   y="0px"
   width="405.22659"
   height="405.22659"
   viewBox="0 0 405.22659 405.2266"
   enable-background="new 0 0 500 500"
   xml:space="preserve"
   sodipodi:docname="favicon.svg"
   inkscape:version="0.92.5 (2060ec1f9f, 2020-04-08)"
   inkscape:export-filename="/home/user/Projects/ecommerce/public/favicon.png"
   inkscape:export-xdpi="96"
   inkscape:export-ydpi="96"><metadata
   id="metadata9"><rdf:RDF><cc:Work
       rdf:about=""><dc:format>image/svg+xml</dc:format><dc:type
         rdf:resource="http://purl.org/dc/dcmitype/StillImage" /></cc:Work></rdf:RDF></metadata><defs
   id="defs7" /><sodipodi:namedview
   id="namedview5"
   pagecolor="#ffffff"
   bordercolor="#666666"
   borderopacity="1.0"
   inkscape:pageshadow="2"
   inkscape:pageopacity="0.0"
   inkscape:pagecheckerboard="0"
   showgrid="false"
   inkscape:zoom="0.36769553"
   inkscape:cx="58.472291"
   inkscape:cy="156.37938"
   inkscape:window-width="1366"
   inkscape:window-height="704"
   inkscape:window-x="0"
   inkscape:window-y="27"
   inkscape:window-maximized="1"
   inkscape:current-layer="Layer_1" />

<rect
   style="fill:#203040;fill-opacity:1;stroke-width:0.712919"
   id="rect114"
   width="405.22659"
   height="405.22659"
   x="0"
   y="0"
   ry="66.891472" /><path
   style="fill:#ffffff;fill-opacity:1;stroke:none;stroke-width:0.67322px;stroke-linecap:butt;stroke-linejoin:miter;stroke-opacity:1"
   d="M 96.942138,107.46855 H 276.32274 l -17.5273,180.39522 h -123.8723 l -69.547702,45.5487 H 291.57734 l 38.5795,-45.5487 -23.9626,-199.493794 -162.2573,-6.6e-4 z"
   id="path445-7"
   sodipodi:nodetypes="cccccccccc" /><path
   id="path854-4"
   style="fill:#ffffff;fill-opacity:1;stroke:none;stroke-width:0.769525"
   d="m 220.51284,42.730916 a 62.11308,62.11308 0 0 0 -31.0484,8.35353 62.11308,62.11308 0 0 0 -30.9989,53.824534 l 11.5579,-0.0113 a 50.08928,50.08928 0 0 1 24.9944,-43.348784 50.08928,50.08928 0 0 1 50.0897,-0.0541 50.08928,50.08928 0 0 1 25.0876,43.297694 l 12.4957,-0.0133 a 62.11308,62.11308 0 0 0 -31.113,-53.760814 62.11308,62.11308 0 0 0 -31.065,-8.2874 z" /><path
   style="fill:#ffffff;fill-opacity:1;stroke:none;stroke-width:1.39825px;stroke-linecap:butt;stroke-linejoin:miter;stroke-opacity:1"
   d="m 193.88774,246.63686 c 11.8239,5.81627 14.4453,20.44491 -4.9085,22.91312 -19.5816,2.76686 -76.5677,-24.26009 -49.0349,-47.38232 l 88.8358,-29.19424 c -11.217,-40.80739 -74.0871,-44.83251 -79.8527,11.88637 -5.8088,21.11092 -26.7879,15.67741 -27.2253,-1.34447 11.6198,-98.79869 117.0607,-78.32688 130.1307,-15.97742 l 5.803,23.31853 -83.9766,27.77097 z"
   id="path21149"
   sodipodi:nodetypes="cccccccccc" /></svg>