<?xml version="1.0" encoding="UTF-8" standalone="no"?>
<!-- Generator: Adobe Illustrator 16.0.0, SVG Export Plug-In . SVG Version: 6.00 Build 0)  -->

<svg
   xmlns:dc="http://purl.org/dc/elements/1.1/"
   xmlns:cc="http://creativecommons.org/ns#"
   xmlns:rdf="http://www.w3.org/1999/02/22-rdf-syntax-ns#"
   xmlns:svg="http://www.w3.org/2000/svg"
   xmlns="http://www.w3.org/2000/svg"
   xmlns:sodipodi="http://sodipodi.sourceforge.net/DTD/sodipodi-0.dtd"
   xmlns:inkscape="http://www.inkscape.org/namespaces/inkscape"
   version="1.1"
   id="Layer_1"
   x="0px"
   y="0px"
   width="1199.4021"
   height="406.54135"
   viewBox="0 0 1199.4021 406.54135"
   enable-background="new 0 0 500 500"
   xml:space="preserve"
   sodipodi:docname="logo.svg"
   inkscape:version="0.92.5 (2060ec1f9f, 2020-04-08)"><metadata
   id="metadata12"><rdf:RDF><cc:Work
       rdf:about=""><dc:format>image/svg+xml</dc:format><dc:type
         rdf:resource="http://purl.org/dc/dcmitype/StillImage" /></cc:Work></rdf:RDF></metadata><defs
   id="defs7" /><sodipodi:namedview
   id="namedview5"
   pagecolor="#ffffff"
   bordercolor="#666666"
   borderopacity="1.0"
   inkscape:pageshadow="2"
   inkscape:pageopacity="0.0"
   inkscape:pagecheckerboard="0"
   showgrid="false"
   inkscape:zoom="0.36769553"
   inkscape:cx="938.29639"
   inkscape:cy="467.07589"
   inkscape:window-width="1366"
   inkscape:window-height="704"
   inkscape:window-x="0"
   inkscape:window-y="27"
   inkscape:window-maximized="1"
   inkscape:current-layer="Layer_1" />

<path
   inkscape:connector-curvature="0"
   style="fill:#ffffff;fill-opacity:1;stroke:#ffffff;stroke-width:0.84353602px;stroke-linecap:butt;stroke-linejoin:miter;stroke-opacity:1"
   d="M 40.966365,81.597585 H 265.7281 L 243.7666,307.63051 H 88.556065 L 1.4138047,364.70244 H 284.8418 L 333.1814,307.63051 303.1566,57.667335 99.850165,57.666495 Z"
   id="path445-7"
   sodipodi:nodetypes="cccccccccc" /><path
   inkscape:connector-curvature="0"
   id="path854-4"
   style="fill:#ffffff;fill-opacity:1;stroke:#ffffff;stroke-width:0.96420401"
   d="M 195.7989,0.48216816 A 77.826894,77.826894 0 0 0 156.89555,10.949038 77.826894,77.826894 0 0 0 118.05435,78.390485 l 14.4819,-0.0143 a 62.761227,62.761227 0 0 1 31.3177,-54.315467 62.761227,62.761227 0 0 1 62.76175,-0.0678 62.761227,62.761227 0 0 1 31.4345,54.251447 l 15.657,-0.0166 A 77.826894,77.826894 0 0 0 234.7229,10.866148 77.826894,77.826894 0 0 0 195.7989,0.48214816 Z" /><text
   xml:space="preserve"
   style="font-style:normal;font-weight:normal;font-size:399.96875px;line-height:1.25;font-family:sans-serif;fill:#ffffff;fill-opacity:1;stroke:#ffffff;stroke-width:9.99921131"
   x="378.84125"
   y="323.61349"
   id="text3172"><tspan
     sodipodi:role="line"
     id="tspan3170"
     x="378.84125"
     y="323.61349"
     style="font-style:normal;font-variant:normal;font-weight:bold;font-stretch:normal;font-family:Dyuthi;-inkscape-font-specification:'Dyuthi Bold';fill:#ffffff;fill-opacity:1;stroke:#ffffff;stroke-width:9.99921131">Shop</tspan></text>
<path
   inkscape:connector-curvature="0"
   style="fill:#ffffff;fill-opacity:1;stroke:#ffffff;stroke-width:1.75197995px;stroke-linecap:butt;stroke-linejoin:miter;stroke-opacity:1"
   d="m 162.43785,255.97371 c 14.81535,7.28772 18.10005,25.6172 -6.1502,28.70985 -24.5356,3.46683 -95.938385,-30.39759 -61.440085,-59.36945 l 111.310135,-36.58 C 192.103,137.60298 113.32755,132.55955 106.10325,203.62757 98.824865,230.07929 72.538465,223.27117 71.990265,201.94298 86.549865,78.149485 218.666,103.80039 235.0425,181.92348 l 7.271,29.21781 -105.22165,34.79667 z"
   id="path21149"
   sodipodi:nodetypes="cccccccccc" /></svg>